<svg width="619" height="377" viewBox="0 0 619 377" fill="none" xmlns="http://www.w3.org/2000/svg">
<path opacity="0.1" d="M147.846 376.99C117.306 376.872 91.0274 369.355 69.0104 354.44C47.1117 339.526 30.2438 317.923 18.4067 289.632C6.68795 261.341 0.887758 227.31 1.00613 187.537C1.00613 147.883 6.8655 114.088 18.5843 86.152C30.4214 58.2164 47.2893 36.9687 69.188 22.4091C91.205 7.73105 117.424 0.392032 147.846 0.392032C178.267 0.392032 204.427 7.73105 226.326 22.4091C248.343 37.0871 265.27 58.3939 277.107 86.3295C288.944 114.147 294.803 147.883 294.685 187.537C294.685 227.428 288.767 261.519 276.929 289.81C265.211 318.1 248.402 339.703 226.503 354.618C204.605 369.533 178.385 376.99 147.846 376.99ZM147.846 313.247C168.679 313.247 185.31 302.771 197.739 281.82C210.168 260.868 216.323 229.44 216.205 187.537C216.205 159.956 213.364 136.992 207.682 118.645C202.119 100.297 194.188 86.5071 183.89 77.2741C173.71 68.0412 161.695 63.4247 147.846 63.4247C127.131 63.4247 110.559 73.7822 98.1297 94.4972C85.7007 115.212 79.4271 146.225 79.3087 187.537C79.3087 215.473 82.0904 238.792 87.6539 257.494C93.3357 276.079 101.326 290.046 111.624 299.398C121.922 308.631 133.996 313.247 147.846 313.247ZM482.228 373.972C457.134 373.972 434.761 369.355 415.112 360.122C395.581 350.889 380.074 338.164 368.592 321.947C357.11 305.731 351.132 287.146 350.659 266.195H425.233C426.061 280.281 431.98 291.704 442.988 300.463C453.997 309.223 467.077 313.602 482.228 313.602C494.302 313.602 504.956 310.939 514.189 305.612C523.54 300.167 530.82 292.651 536.028 283.062C541.355 273.356 544.018 262.229 544.018 249.682C544.018 236.898 541.296 225.652 535.85 215.946C530.524 206.24 523.126 198.664 513.656 193.219C504.186 187.774 493.355 184.992 481.163 184.874C470.51 184.874 460.152 187.063 450.091 191.443C440.147 195.823 432.394 201.801 426.831 209.376L358.471 197.125L375.694 5.36363H597.995V68.2188H439.082L429.671 159.305H431.802C438.194 150.309 447.841 142.852 460.744 136.933C473.646 131.015 488.088 128.055 504.068 128.055C525.966 128.055 545.498 133.205 562.662 143.503C579.825 153.801 593.379 167.946 603.322 185.939C613.265 203.813 618.178 224.41 618.059 247.729C618.178 272.232 612.496 294.012 601.014 313.07C589.65 332.009 573.729 346.924 553.251 357.814C532.891 368.586 509.217 373.972 482.228 373.972Z" fill="black"/>
</svg>
