<svg width="637" height="377" viewBox="0 0 637 377" fill="none" xmlns="http://www.w3.org/2000/svg">
<path opacity="0.05" d="M147.545 376.99C117.005 376.872 90.7267 369.355 68.7096 354.44C46.8109 339.526 29.943 317.923 18.1059 289.632C6.38717 261.341 0.586976 227.31 0.705347 187.537C0.705347 147.883 6.56472 114.088 18.2835 86.152C30.1206 58.2164 46.9885 36.9687 68.8872 22.4091C90.9042 7.73105 117.123 0.392032 147.545 0.392032C177.966 0.392032 204.126 7.73105 226.025 22.4091C248.042 37.0871 264.969 58.3939 276.806 86.3295C288.643 114.147 294.503 147.883 294.384 187.537C294.384 227.428 288.466 261.519 276.629 289.81C264.91 318.1 248.101 339.703 226.203 354.618C204.304 369.533 178.085 376.99 147.545 376.99ZM147.545 313.247C168.378 313.247 185.009 302.771 197.438 281.82C209.867 260.868 216.023 229.44 215.904 187.537C215.904 159.956 213.063 136.992 207.381 118.645C201.818 100.297 193.887 86.5071 183.589 77.2741C173.409 68.0412 161.394 63.4247 147.545 63.4247C126.83 63.4247 110.258 73.7822 97.8289 94.4972C85.4 115.212 79.1263 146.225 79.0079 187.537C79.0079 215.473 81.7896 238.792 87.3531 257.494C93.0349 276.079 101.025 290.046 111.323 299.398C121.622 308.631 133.695 313.247 147.545 313.247ZM343.611 305.08V244.533L495.422 5.36363H547.624V89.1704H516.729L421.026 240.626V243.467H636.757V305.08H343.611ZM518.149 369V286.614L519.57 259.803V5.36363H591.658V369H518.149Z" fill="black"/>
</svg>
