<svg width="171" height="50" viewBox="0 0 171 50" fill="none" xmlns="http://www.w3.org/2000/svg">
<g clip-path="url(#clip0_256_580)">
<mask id="mask0_256_580" style="mask-type:luminance" maskUnits="userSpaceOnUse" x="0" y="0" width="171" height="50">
<path d="M171 0H0V50H171V0Z" fill="white"/>
</mask>
<g mask="url(#mask0_256_580)">
<path d="M38.9562 25.7084C38.9562 25.7084 38.9474 25.6941 38.9421 25.6868C38.9439 25.6868 38.9439 25.685 38.9439 25.6814C38.9457 25.6904 38.9527 25.6977 38.9562 25.7067V25.7084Z" fill="url(#paint0_linear_256_580)"/>
<path d="M38.9562 25.7084C38.9562 25.7084 38.9474 25.6941 38.9421 25.6868C38.9439 25.6868 38.9439 25.685 38.9439 25.6814C38.9457 25.6904 38.9527 25.6977 38.9562 25.7067V25.7084Z" fill="url(#paint1_linear_256_580)"/>
<path d="M38.9562 25.7084C38.9562 25.7084 38.9474 25.6941 38.9421 25.6868C38.9439 25.6868 38.9439 25.685 38.9439 25.6814C38.9457 25.6904 38.9527 25.6977 38.9562 25.7067V25.7084Z" fill="url(#paint2_linear_256_580)"/>
<path d="M38.9562 25.7084C38.9562 25.7084 38.9474 25.6941 38.9421 25.6868C38.9439 25.6868 38.9439 25.685 38.9439 25.6814C38.9457 25.6904 38.9527 25.6977 38.9562 25.7067V25.7084Z" fill="url(#paint3_linear_256_580)"/>
<path d="M47.9141 0C47.5598 9.63078 44.2726 18.4916 38.9441 25.6839C38.9441 25.6857 38.9441 25.6893 38.9423 25.6893C36.4118 29.1079 33.4153 32.1479 30.0556 34.7114C29.8535 34.8672 29.648 35.023 29.4406 35.1734C22.1363 40.554 13.168 43.7244 3.4732 43.7244C2.30542 43.7244 1.14651 43.6773 0 43.5886V30.9449C1.13942 31.0718 2.29833 31.1352 3.4732 31.1352C10.9725 31.1352 17.871 28.5101 23.3413 24.1132C23.6337 23.8759 23.9243 23.6331 24.2078 23.3886C27.1033 20.8903 29.5594 17.8793 31.4431 14.4914C32.4407 12.6979 33.2789 10.7975 33.9346 8.81556V8.81011C34.8596 6.02017 35.4284 3.06895 35.5861 0.00181166H47.9141V0Z" fill="url(#paint4_linear_256_580)"/>
<path d="M28.9888 11.9975C27.4666 14.936 25.4766 17.5792 23.118 19.8257C22.4517 20.4616 21.7571 21.0649 21.0359 21.6319C15.5195 16.273 8.14432 12.8943 0 12.6117V0.0151901C7.8962 0.212661 15.2821 2.51528 21.6419 6.39406C24.2805 8.00278 26.7401 9.88328 28.9888 11.9975Z" fill="url(#paint5_linear_256_580)"/>
<path d="M48.9059 35.8477V50.0004C46.9743 49.1743 45.1119 48.2105 43.3328 47.1253C39.0693 44.5256 35.27 41.2193 32.0874 37.3641C35.1796 34.9926 37.983 32.2479 40.4319 29.1971C40.6038 28.9833 40.7757 28.7659 40.9405 28.5503C43.1751 31.4128 45.8686 33.8857 48.9076 35.8495L48.9059 35.8477Z" fill="url(#paint6_linear_256_580)"/>
<path d="M38.9562 25.7084C38.9562 25.7084 38.9474 25.6941 38.9421 25.6868C38.9439 25.6868 38.9439 25.685 38.9439 25.6814C38.9457 25.6904 38.9527 25.6977 38.9562 25.7067V25.7084Z" fill="url(#paint7_linear_256_580)"/>
</g>
<path d="M102.85 24.1219C101.884 24.8719 100.756 25.5108 99.4684 26.033C98.1804 26.5552 96.7424 26.8163 95.1601 26.8163C94.0497 26.8163 93.0337 26.6163 92.1065 26.2108C91.1905 25.8052 90.4576 25.1997 89.9135 24.3941C89.4527 23.7052 89.1918 22.8885 89.1196 21.9385C89.9246 22.3052 90.7297 22.633 91.5403 22.9108C92.845 23.3608 94.3884 23.583 96.1761 23.583C97.6696 23.583 99.0742 23.3441 100.39 22.8663C101.711 22.3885 102.777 21.6663 103.599 20.7108C104.415 19.7497 104.832 18.4774 104.832 17.0719C104.832 15.6663 104.41 14.4441 103.577 13.4108C102.744 12.3774 101.595 11.583 100.129 11.033C98.6634 10.4774 96.9645 10.1997 95.0324 10.1997C93.4224 10.1997 91.8845 10.4719 90.4188 11.0052C88.953 11.5497 87.6428 12.3219 86.488 13.3219C85.3332 14.3274 84.4171 15.5274 83.7453 16.9385C83.068 18.3441 82.7349 19.933 82.7349 21.6997C82.7349 23.4663 83.068 25.0219 83.7453 26.3663C84.4171 27.7163 85.3387 28.8497 86.5102 29.7608C87.6817 30.6719 88.9919 31.3608 90.441 31.8274C91.8956 32.2885 93.3779 32.5219 94.8992 32.5219C96.4204 32.5219 97.7806 32.3552 99.0742 32.0274C100.362 31.6997 101.545 31.233 102.627 30.633C103.71 30.0385 104.693 29.3497 105.576 28.5719L102.85 24.1219ZM91.1183 17.1608C91.7346 16.6219 92.423 16.2052 93.1836 15.9052C93.9442 15.6052 94.7659 15.4552 95.5599 15.4552C96.3538 15.4552 96.9756 15.6052 97.4475 15.9052C97.9139 16.2052 98.1526 16.5941 98.1526 17.0719C98.1526 17.4608 98.0138 17.8052 97.7362 18.1052C97.4531 18.4052 97.0478 18.6385 96.5037 18.7997C95.9596 18.9663 95.2823 19.0663 94.4606 19.0941C93.6722 19.0941 92.7395 19.0052 91.6735 18.8219C91.1849 18.7385 90.6408 18.5997 90.0412 18.3885C90.341 17.9385 90.7019 17.5274 91.1183 17.1608Z" fill="#201B46"/>
<path d="M132.658 20.6663V31.8941H125.985V20.6663C125.985 20.0997 125.896 19.5663 125.718 19.0719C125.546 18.5774 125.285 18.1441 124.952 17.7663C124.613 17.3941 124.203 17.0997 123.72 16.8941C123.236 16.683 122.687 16.5774 122.071 16.5774C121.371 16.5774 120.666 16.7274 119.966 17.0274C119.261 17.3274 118.551 17.783 117.834 18.3997C117.135 18.9997 116.419 19.733 115.702 20.6108V31.8941H109.029V10.7385H115.702V15.4774C115.897 15.2441 116.086 15.0219 116.274 14.8052C117.179 13.7719 118.068 12.9108 118.934 12.2219C119.794 11.533 120.688 11.0274 121.61 10.6941C122.537 10.3663 123.525 10.1997 124.575 10.1997C125.896 10.1997 127.062 10.4219 128.072 10.8497C129.077 11.2885 129.921 11.9441 130.593 12.8274C131.27 13.7108 131.781 14.8052 132.131 16.1052C132.486 17.4108 132.658 18.933 132.658 20.6663Z" fill="#201B46"/>
<path d="M143.884 1.42127C143.079 0.749045 142.03 0.410156 140.742 0.410156C139.571 0.410156 138.571 0.749045 137.733 1.42127C136.9 2.09906 136.484 2.95461 136.484 4.00461C136.484 4.9935 136.9 5.81572 137.733 6.47128C138.571 7.13239 139.571 7.46017 140.742 7.46017C142.036 7.46017 143.079 7.13239 143.884 6.47128C144.689 5.81572 145.095 4.9935 145.095 4.00461C145.095 2.95461 144.689 2.09906 143.884 1.42127Z" fill="#201B46"/>
<path d="M144.523 10.7378H137.844V31.8934H144.523V10.7378Z" fill="#201B46"/>
<path d="M168.274 24.1219C167.308 24.8719 166.181 25.5108 164.893 26.033C163.605 26.5552 162.167 26.8163 160.59 26.8163C159.474 26.8163 158.458 26.6163 157.537 26.2108C156.615 25.8052 155.882 25.1997 155.338 24.3941C154.883 23.7052 154.616 22.8885 154.544 21.9385C155.349 22.3052 156.154 22.633 156.965 22.9108C158.27 23.3608 159.813 23.583 161.601 23.583C163.094 23.583 164.499 23.3441 165.815 22.8663C167.136 22.3885 168.202 21.6663 169.024 20.7108C169.845 19.7497 170.256 18.4774 170.256 17.0719C170.256 15.6663 169.84 14.4441 169.001 13.4108C168.169 12.3774 167.019 11.583 165.554 11.033C164.088 10.4774 162.395 10.1997 160.457 10.1997C158.847 10.1997 157.309 10.4719 155.843 11.0052C154.383 11.5497 153.073 12.3219 151.913 13.3219C150.758 14.3274 149.842 15.5274 149.17 16.9385C148.498 18.3441 148.159 19.933 148.159 21.6997C148.159 23.4663 148.498 25.0219 149.17 26.3663C149.842 27.7163 150.763 28.8497 151.935 29.7608C153.106 30.6719 154.422 31.3608 155.871 31.8274C157.32 32.2885 158.797 32.5219 160.324 32.5219H160.329C161.823 32.5219 163.211 32.3552 164.499 32.0274C165.787 31.6997 166.969 31.233 168.058 30.633C169.14 30.0385 170.117 29.3497 171 28.5719L168.274 24.1219ZM156.548 17.1608C157.159 16.6219 157.848 16.2052 158.608 15.9052C159.374 15.6052 160.19 15.4552 160.984 15.4552C161.778 15.4552 162.4 15.6052 162.872 15.9052C163.344 16.2052 163.577 16.5941 163.577 17.0719C163.577 17.4608 163.438 17.8052 163.161 18.1052C162.883 18.4052 162.472 18.6385 161.928 18.7997C161.39 18.9663 160.707 19.0663 159.885 19.0941C159.097 19.0941 158.164 19.0052 157.098 18.8219C156.609 18.7385 156.065 18.5997 155.466 18.3885C155.766 17.9385 156.126 17.5274 156.548 17.1608Z" fill="#201B46"/>
<path d="M82.7349 31.894H74.3181L70.0598 26.4662L65.7959 31.894H57.3792L65.9569 21.2551L57.3792 10.3885H65.7848L70.0598 15.9829L74.3293 10.3885H82.7293L74.1571 21.2551L82.7349 31.894Z" fill="#201B46"/>
<path d="M129.14 47.2222V39.7722H132.278C132.771 39.7722 133.19 39.8589 133.537 40.0322C133.89 40.1989 134.16 40.4389 134.346 40.7522C134.539 41.0589 134.636 41.4322 134.636 41.8722C134.636 42.2122 134.543 42.5322 134.356 42.8322C134.176 43.1256 133.887 43.3689 133.487 43.5622V42.9322C133.853 43.0722 134.143 43.2456 134.356 43.4522C134.569 43.6589 134.719 43.8889 134.806 44.1422C134.893 44.3956 134.936 44.6622 134.936 44.9422C134.936 45.6556 134.699 46.2156 134.226 46.6222C133.76 47.0222 133.11 47.2222 132.278 47.2222H129.14ZM130.499 46.0222H132.418C132.771 46.0222 133.05 45.9256 133.257 45.7322C133.47 45.5322 133.577 45.2689 133.577 44.9422C133.577 44.6156 133.47 44.3522 133.257 44.1522C133.05 43.9522 132.771 43.8522 132.418 43.8522H130.499V46.0222ZM130.499 42.6622H132.348C132.627 42.6622 132.851 42.5822 133.017 42.4222C133.184 42.2556 133.267 42.0422 133.267 41.7822C133.267 41.5222 133.184 41.3156 133.017 41.1622C132.851 41.0089 132.627 40.9322 132.348 40.9322H130.499V42.6622Z" fill="#201B46"/>
<path d="M140.916 47.3422C140.37 47.3422 139.86 47.2456 139.387 47.0522C138.914 46.8589 138.501 46.5889 138.148 46.2422C137.795 45.8956 137.518 45.4889 137.318 45.0222C137.125 44.5489 137.029 44.0389 137.029 43.4922C137.029 42.9389 137.125 42.4289 137.318 41.9622C137.512 41.4956 137.785 41.0889 138.138 40.7422C138.491 40.3956 138.904 40.1289 139.377 39.9422C139.85 39.7489 140.363 39.6522 140.916 39.6522C141.469 39.6522 141.982 39.7489 142.455 39.9422C142.928 40.1356 143.341 40.4056 143.694 40.7522C144.047 41.0922 144.321 41.4956 144.514 41.9622C144.714 42.4289 144.814 42.9389 144.814 43.4922C144.814 44.0389 144.714 44.5489 144.514 45.0222C144.314 45.4889 144.037 45.8956 143.684 46.2422C143.331 46.5889 142.918 46.8589 142.445 47.0522C141.979 47.2456 141.469 47.3422 140.916 47.3422ZM140.916 46.1022C141.282 46.1022 141.619 46.0389 141.925 45.9122C142.232 45.7789 142.498 45.5956 142.725 45.3622C142.958 45.1289 143.135 44.8522 143.255 44.5322C143.381 44.2122 143.444 43.8656 143.444 43.4922C143.444 43.1189 143.381 42.7756 143.255 42.4622C143.135 42.1422 142.958 41.8656 142.725 41.6322C142.498 41.3922 142.232 41.2089 141.925 41.0822C141.619 40.9556 141.282 40.8922 140.916 40.8922C140.556 40.8922 140.223 40.9556 139.917 41.0822C139.61 41.2089 139.34 41.3922 139.107 41.6322C138.881 41.8656 138.704 42.1422 138.578 42.4622C138.451 42.7756 138.388 43.1189 138.388 43.4922C138.388 43.8656 138.451 44.2122 138.578 44.5322C138.704 44.8522 138.881 45.1289 139.107 45.3622C139.34 45.5956 139.61 45.7789 139.917 45.9122C140.223 46.0389 140.556 46.1022 140.916 46.1022Z" fill="#201B46"/>
<path d="M150.889 47.3422C150.343 47.3422 149.833 47.2456 149.36 47.0522C148.887 46.8589 148.474 46.5889 148.121 46.2422C147.768 45.8956 147.491 45.4889 147.291 45.0222C147.098 44.5489 147.001 44.0389 147.001 43.4922C147.001 42.9389 147.098 42.4289 147.291 41.9622C147.484 41.4956 147.758 41.0889 148.111 40.7422C148.464 40.3956 148.877 40.1289 149.35 39.9422C149.823 39.7489 150.336 39.6522 150.889 39.6522C151.442 39.6522 151.955 39.7489 152.428 39.9422C152.901 40.1356 153.314 40.4056 153.667 40.7522C154.02 41.0922 154.293 41.4956 154.487 41.9622C154.686 42.4289 154.786 42.9389 154.786 43.4922C154.786 44.0389 154.686 44.5489 154.487 45.0222C154.287 45.4889 154.01 45.8956 153.657 46.2422C153.304 46.5889 152.891 46.8589 152.418 47.0522C151.952 47.2456 151.442 47.3422 150.889 47.3422ZM150.889 46.1022C151.255 46.1022 151.592 46.0389 151.898 45.9122C152.205 45.7789 152.471 45.5956 152.698 45.3622C152.931 45.1289 153.107 44.8522 153.227 44.5322C153.354 44.2122 153.417 43.8656 153.417 43.4922C153.417 43.1189 153.354 42.7756 153.227 42.4622C153.107 42.1422 152.931 41.8656 152.698 41.6322C152.471 41.3922 152.205 41.2089 151.898 41.0822C151.592 40.9556 151.255 40.8922 150.889 40.8922C150.529 40.8922 150.196 40.9556 149.89 41.0822C149.583 41.2089 149.313 41.3922 149.08 41.6322C148.854 41.8656 148.677 42.1422 148.55 42.4622C148.424 42.7756 148.361 43.1189 148.361 43.4922C148.361 43.8656 148.424 44.2122 148.55 44.5322C148.677 44.8522 148.854 45.1289 149.08 45.3622C149.313 45.5956 149.583 45.7789 149.89 45.9122C150.196 46.0389 150.529 46.1022 150.889 46.1022Z" fill="#201B46"/>
<path d="M157.194 47.2222V39.7722H158.553V43.6522L158.183 43.5222L161.351 39.7722H163.06L160.092 43.2922L160.172 42.3322L163.15 47.2222H161.551L159.553 43.9422L158.553 45.1322V47.2222H157.194Z" fill="#201B46"/>
<path d="M167.737 47.3422C167.264 47.3422 166.824 47.2556 166.418 47.0822C166.018 46.9089 165.671 46.6689 165.378 46.3622C165.092 46.0489 164.882 45.6856 164.749 45.2722L165.878 44.7822C166.058 45.2089 166.318 45.5456 166.657 45.7922C166.997 46.0322 167.38 46.1522 167.807 46.1522C168.046 46.1522 168.253 46.1156 168.426 46.0422C168.606 45.9622 168.743 45.8556 168.836 45.7222C168.936 45.5889 168.986 45.4289 168.986 45.2422C168.986 45.0222 168.919 44.8422 168.786 44.7022C168.659 44.5556 168.466 44.4422 168.206 44.3622L166.777 43.9022C166.198 43.7222 165.761 43.4522 165.468 43.0922C165.175 42.7322 165.028 42.3089 165.028 41.8222C165.028 41.3956 165.132 41.0189 165.338 40.6922C165.551 40.3656 165.845 40.1122 166.218 39.9322C166.597 39.7456 167.03 39.6522 167.517 39.6522C167.963 39.6522 168.373 39.7322 168.746 39.8922C169.119 40.0456 169.439 40.2622 169.705 40.5422C169.979 40.8156 170.182 41.1389 170.315 41.5122L169.196 42.0122C169.049 41.6389 168.829 41.3522 168.536 41.1522C168.243 40.9456 167.903 40.8422 167.517 40.8422C167.29 40.8422 167.09 40.8822 166.917 40.9622C166.744 41.0356 166.607 41.1422 166.507 41.2822C166.414 41.4156 166.368 41.5756 166.368 41.7622C166.368 41.9689 166.434 42.1522 166.567 42.3122C166.701 42.4656 166.904 42.5856 167.177 42.6722L168.546 43.1022C169.139 43.2956 169.582 43.5622 169.875 43.9022C170.175 44.2422 170.325 44.6622 170.325 45.1622C170.325 45.5889 170.215 45.9656 169.995 46.2922C169.775 46.6189 169.472 46.8756 169.086 47.0622C168.699 47.2489 168.25 47.3422 167.737 47.3422Z" fill="#201B46"/>
</g>
<defs>
<linearGradient id="paint0_linear_256_580" x1="9.27851" y1="47.0497" x2="47.363" y2="20.8318" gradientUnits="userSpaceOnUse">
<stop stop-color="#A6EE85"/>
<stop offset="0.48" stop-color="#8F85FF"/>
<stop offset="1" stop-color="#DC4375"/>
</linearGradient>
<linearGradient id="paint1_linear_256_580" x1="9.27851" y1="47.0497" x2="47.363" y2="20.8318" gradientUnits="userSpaceOnUse">
<stop stop-color="#A6EE85"/>
<stop offset="0.48" stop-color="#8F85FF"/>
<stop offset="1" stop-color="#DC4375"/>
</linearGradient>
<linearGradient id="paint2_linear_256_580" x1="9.27851" y1="47.0497" x2="47.363" y2="20.8318" gradientUnits="userSpaceOnUse">
<stop stop-color="#A6EE85"/>
<stop offset="0.48" stop-color="#8F85FF"/>
<stop offset="1" stop-color="#DC4375"/>
</linearGradient>
<linearGradient id="paint3_linear_256_580" x1="9.27851" y1="47.0497" x2="47.363" y2="20.8318" gradientUnits="userSpaceOnUse">
<stop stop-color="#A6EE85"/>
<stop offset="0.48" stop-color="#8F85FF"/>
<stop offset="1" stop-color="#DC4375"/>
</linearGradient>
<linearGradient id="paint4_linear_256_580" x1="-7.11144" y1="46.2986" x2="60.3851" y2="-2.84136" gradientUnits="userSpaceOnUse">
<stop offset="0.130313" stop-color="#A6EE85"/>
<stop offset="0.48" stop-color="#8F85FF"/>
<stop offset="0.898167" stop-color="#DC4375"/>
</linearGradient>
<linearGradient id="paint5_linear_256_580" x1="-7.15019" y1="23.5378" x2="40.0854" y2="-8.9855" gradientUnits="userSpaceOnUse">
<stop offset="0.48" stop-color="#8F85FF"/>
</linearGradient>
<linearGradient id="paint6_linear_256_580" x1="17.3476" y1="59.1206" x2="64.5833" y2="26.597" gradientUnits="userSpaceOnUse">
<stop offset="0.48" stop-color="#8F85FF"/>
</linearGradient>
<linearGradient id="paint7_linear_256_580" x1="9.27851" y1="47.0497" x2="47.363" y2="20.8318" gradientUnits="userSpaceOnUse">
<stop stop-color="#A6EE85"/>
<stop offset="0.48" stop-color="#8F85FF"/>
<stop offset="1" stop-color="#DC4375"/>
</linearGradient>
<clipPath id="clip0_256_580">
<rect width="171" height="50" fill="white"/>
</clipPath>
</defs>
</svg>
