<svg width="171" height="50" viewBox="0 0 171 50" fill="none" xmlns="http://www.w3.org/2000/svg">
<g clip-path="url(#clip0_261_824)">
<mask id="mask0_261_824" style="mask-type:luminance" maskUnits="userSpaceOnUse" x="0" y="0" width="171" height="50">
<path d="M171 0H0V50H171V0Z" fill="white"/>
</mask>
<g mask="url(#mask0_261_824)">
<path d="M38.9562 25.7086C38.9562 25.7086 38.9474 25.6943 38.9421 25.687C38.9439 25.687 38.9439 25.6852 38.9439 25.6816C38.9457 25.6906 38.9527 25.6979 38.9562 25.7069V25.7086Z" fill="url(#paint0_linear_261_824)"/>
<path d="M38.9562 25.7086C38.9562 25.7086 38.9474 25.6943 38.9421 25.687C38.9439 25.687 38.9439 25.6852 38.9439 25.6816C38.9457 25.6906 38.9527 25.6979 38.9562 25.7069V25.7086Z" fill="url(#paint1_linear_261_824)"/>
<path d="M38.9562 25.7086C38.9562 25.7086 38.9474 25.6943 38.9421 25.687C38.9439 25.687 38.9439 25.6852 38.9439 25.6816C38.9457 25.6906 38.9527 25.6979 38.9562 25.7069V25.7086Z" fill="url(#paint2_linear_261_824)"/>
<path d="M38.9562 25.7086C38.9562 25.7086 38.9474 25.6943 38.9421 25.687C38.9439 25.687 38.9439 25.6852 38.9439 25.6816C38.9457 25.6906 38.9527 25.6979 38.9562 25.7069V25.7086Z" fill="url(#paint3_linear_261_824)"/>
<path d="M47.9141 0C47.5598 9.63078 44.2726 18.4916 38.9441 25.6839C38.9441 25.6857 38.9441 25.6893 38.9423 25.6893C36.4118 29.1079 33.4153 32.1479 30.0556 34.7114C29.8535 34.8672 29.648 35.023 29.4406 35.1734C22.1363 40.554 13.168 43.7244 3.4732 43.7244C2.30542 43.7244 1.14651 43.6773 0 43.5886V30.9449C1.13942 31.0718 2.29833 31.1352 3.4732 31.1352C10.9725 31.1352 17.871 28.5101 23.3413 24.1132C23.6337 23.8759 23.9243 23.6331 24.2078 23.3886C27.1033 20.8903 29.5594 17.8793 31.4431 14.4914C32.4407 12.6979 33.2789 10.7975 33.9346 8.81556V8.81011C34.8596 6.02017 35.4284 3.06895 35.5861 0.00181166H47.9141V0Z" fill="url(#paint4_linear_261_824)"/>
<path d="M28.9888 11.9974C27.4666 14.9359 25.4766 17.5792 23.118 19.8256C22.4517 20.4616 21.7571 21.0648 21.0359 21.6318C15.5195 16.2729 8.14432 12.8942 0 12.6116V0.0151367C7.8962 0.212607 15.2821 2.51523 21.6419 6.394C24.2805 8.00272 26.7401 9.88322 28.9888 11.9974Z" fill="url(#paint5_linear_261_824)"/>
<path d="M48.9059 35.8477V50.0004C46.9743 49.1742 45.1119 48.2105 43.3328 47.1252C39.0693 44.5255 35.27 41.2192 32.0874 37.364C35.1796 34.9926 37.983 32.2479 40.4319 29.1971C40.6038 28.9833 40.7757 28.7659 40.9405 28.5503C43.1751 31.4127 45.8686 33.8856 48.9076 35.8495L48.9059 35.8477Z" fill="url(#paint6_linear_261_824)"/>
<path d="M38.9562 25.7086C38.9562 25.7086 38.9474 25.6943 38.9421 25.687C38.9439 25.687 38.9439 25.6852 38.9439 25.6816C38.9457 25.6906 38.9527 25.6979 38.9562 25.7069V25.7086Z" fill="url(#paint7_linear_261_824)"/>
</g>
<path d="M102.85 24.1219C101.884 24.8719 100.756 25.5108 99.4684 26.033C98.1804 26.5553 96.7424 26.8164 95.1601 26.8164C94.0497 26.8164 93.0337 26.6164 92.1065 26.2108C91.1905 25.8053 90.4576 25.1997 89.9135 24.3942C89.4527 23.7053 89.1918 22.8886 89.1196 21.9386C89.9246 22.3053 90.7297 22.633 91.5403 22.9108C92.845 23.3608 94.3884 23.583 96.1761 23.583C97.6696 23.583 99.0742 23.3442 100.39 22.8664C101.711 22.3886 102.777 21.6664 103.599 20.7108C104.415 19.7497 104.832 18.4775 104.832 17.0719C104.832 15.6664 104.41 14.4442 103.577 13.4108C102.744 12.3775 101.595 11.583 100.129 11.033C98.6634 10.4775 96.9645 10.1997 95.0324 10.1997C93.4224 10.1997 91.8845 10.4719 90.4188 11.0053C88.953 11.5497 87.6428 12.3219 86.488 13.3219C85.3332 14.3275 84.4171 15.5275 83.7453 16.9386C83.068 18.3442 82.7349 19.933 82.7349 21.6997C82.7349 23.4664 83.068 25.0219 83.7453 26.3664C84.4171 27.7164 85.3387 28.8497 86.5102 29.7608C87.6817 30.6719 88.9919 31.3608 90.441 31.8275C91.8956 32.2886 93.3779 32.5219 94.8992 32.5219C96.4204 32.5219 97.7806 32.3553 99.0742 32.0275C100.362 31.6997 101.545 31.233 102.627 30.633C103.71 30.0386 104.693 29.3497 105.576 28.5719L102.85 24.1219ZM91.1183 17.1608C91.7346 16.6219 92.423 16.2053 93.1836 15.9053C93.9442 15.6053 94.7659 15.4553 95.5599 15.4553C96.3538 15.4553 96.9756 15.6053 97.4475 15.9053C97.9139 16.2053 98.1526 16.5942 98.1526 17.0719C98.1526 17.4608 98.0138 17.8053 97.7362 18.1053C97.4531 18.4053 97.0478 18.6386 96.5037 18.7997C95.9596 18.9664 95.2823 19.0664 94.4606 19.0942C93.6722 19.0942 92.7395 19.0053 91.6735 18.8219C91.1849 18.7386 90.6408 18.5997 90.0412 18.3886C90.341 17.9386 90.7019 17.5275 91.1183 17.1608Z" fill="white"/>
<path d="M132.658 20.6664V31.8942H125.985V20.6664C125.985 20.0997 125.896 19.5664 125.718 19.0719C125.546 18.5775 125.285 18.1442 124.952 17.7664C124.613 17.3942 124.203 17.0997 123.72 16.8942C123.236 16.683 122.687 16.5775 122.071 16.5775C121.371 16.5775 120.666 16.7275 119.966 17.0275C119.261 17.3275 118.551 17.783 117.834 18.3997C117.135 18.9997 116.419 19.733 115.702 20.6108V31.8942H109.029V10.7386H115.702V15.4775C115.897 15.2442 116.086 15.0219 116.274 14.8053C117.179 13.7719 118.068 12.9108 118.934 12.2219C119.794 11.533 120.688 11.0275 121.61 10.6942C122.537 10.3664 123.525 10.1997 124.575 10.1997C125.896 10.1997 127.062 10.4219 128.072 10.8497C129.077 11.2886 129.921 11.9442 130.593 12.8275C131.27 13.7108 131.781 14.8053 132.131 16.1053C132.486 17.4108 132.658 18.933 132.658 20.6664Z" fill="white"/>
<path d="M143.884 1.42127C143.079 0.749045 142.03 0.410156 140.742 0.410156C139.571 0.410156 138.571 0.749045 137.733 1.42127C136.9 2.09906 136.484 2.95461 136.484 4.00461C136.484 4.9935 136.9 5.81572 137.733 6.47128C138.571 7.13239 139.571 7.46017 140.742 7.46017C142.036 7.46017 143.079 7.13239 143.884 6.47128C144.689 5.81572 145.095 4.9935 145.095 4.00461C145.095 2.95461 144.689 2.09906 143.884 1.42127Z" fill="white"/>
<path d="M144.523 10.7378H137.844V31.8933H144.523V10.7378Z" fill="white"/>
<path d="M168.274 24.1219C167.308 24.8719 166.181 25.5108 164.893 26.033C163.605 26.5553 162.167 26.8164 160.59 26.8164C159.474 26.8164 158.458 26.6164 157.537 26.2108C156.615 25.8053 155.882 25.1997 155.338 24.3942C154.883 23.7053 154.616 22.8886 154.544 21.9386C155.349 22.3053 156.154 22.633 156.965 22.9108C158.27 23.3608 159.813 23.583 161.601 23.583C163.094 23.583 164.499 23.3442 165.815 22.8664C167.136 22.3886 168.202 21.6664 169.024 20.7108C169.845 19.7497 170.256 18.4775 170.256 17.0719C170.256 15.6664 169.84 14.4442 169.001 13.4108C168.169 12.3775 167.019 11.583 165.554 11.033C164.088 10.4775 162.395 10.1997 160.457 10.1997C158.847 10.1997 157.309 10.4719 155.843 11.0053C154.383 11.5497 153.073 12.3219 151.913 13.3219C150.758 14.3275 149.842 15.5275 149.17 16.9386C148.498 18.3442 148.159 19.933 148.159 21.6997C148.159 23.4664 148.498 25.0219 149.17 26.3664C149.842 27.7164 150.763 28.8497 151.935 29.7608C153.106 30.6719 154.422 31.3608 155.871 31.8275C157.32 32.2886 158.797 32.5219 160.324 32.5219H160.329C161.823 32.5219 163.211 32.3553 164.499 32.0275C165.787 31.6997 166.969 31.233 168.058 30.633C169.14 30.0386 170.117 29.3497 171 28.5719L168.274 24.1219ZM156.548 17.1608C157.159 16.6219 157.848 16.2053 158.608 15.9053C159.374 15.6053 160.19 15.4553 160.984 15.4553C161.778 15.4553 162.4 15.6053 162.872 15.9053C163.344 16.2053 163.577 16.5942 163.577 17.0719C163.577 17.4608 163.438 17.8053 163.161 18.1053C162.883 18.4053 162.472 18.6386 161.928 18.7997C161.39 18.9664 160.707 19.0664 159.885 19.0942C159.097 19.0942 158.164 19.0053 157.098 18.8219C156.609 18.7386 156.065 18.5997 155.466 18.3886C155.766 17.9386 156.126 17.5275 156.548 17.1608Z" fill="white"/>
<path d="M82.7349 31.8942H74.3181L70.0598 26.4664L65.7959 31.8942H57.3792L65.9569 21.2553L57.3792 10.3887H65.7848L70.0598 15.9831L74.3293 10.3887H82.7293L74.1571 21.2553L82.7349 31.8942Z" fill="white"/>
<path d="M129.14 47.2223V39.7723H132.278C132.771 39.7723 133.19 39.859 133.537 40.0323C133.89 40.199 134.16 40.439 134.346 40.7523C134.539 41.059 134.636 41.4323 134.636 41.8723C134.636 42.2123 134.543 42.5323 134.356 42.8323C134.176 43.1257 133.887 43.369 133.487 43.5623V42.9323C133.853 43.0723 134.143 43.2457 134.356 43.4523C134.569 43.659 134.719 43.889 134.806 44.1423C134.893 44.3957 134.936 44.6623 134.936 44.9423C134.936 45.6557 134.699 46.2157 134.226 46.6223C133.76 47.0223 133.11 47.2223 132.278 47.2223H129.14ZM130.499 46.0223H132.418C132.771 46.0223 133.05 45.9257 133.257 45.7323C133.47 45.5323 133.577 45.269 133.577 44.9423C133.577 44.6157 133.47 44.3523 133.257 44.1523C133.05 43.9523 132.771 43.8523 132.418 43.8523H130.499V46.0223ZM130.499 42.6623H132.348C132.627 42.6623 132.851 42.5823 133.017 42.4223C133.184 42.2557 133.267 42.0423 133.267 41.7823C133.267 41.5223 133.184 41.3157 133.017 41.1623C132.851 41.009 132.627 40.9323 132.348 40.9323H130.499V42.6623Z" fill="white"/>
<path d="M140.916 47.3423C140.37 47.3423 139.86 47.2457 139.387 47.0523C138.914 46.859 138.501 46.589 138.148 46.2423C137.795 45.8957 137.518 45.489 137.318 45.0223C137.125 44.549 137.029 44.039 137.029 43.4923C137.029 42.939 137.125 42.429 137.318 41.9623C137.512 41.4957 137.785 41.089 138.138 40.7423C138.491 40.3957 138.904 40.129 139.377 39.9423C139.85 39.749 140.363 39.6523 140.916 39.6523C141.469 39.6523 141.982 39.749 142.455 39.9423C142.928 40.1357 143.341 40.4057 143.694 40.7523C144.047 41.0923 144.321 41.4957 144.514 41.9623C144.714 42.429 144.814 42.939 144.814 43.4923C144.814 44.039 144.714 44.549 144.514 45.0223C144.314 45.489 144.037 45.8957 143.684 46.2423C143.331 46.589 142.918 46.859 142.445 47.0523C141.979 47.2457 141.469 47.3423 140.916 47.3423ZM140.916 46.1023C141.282 46.1023 141.619 46.039 141.925 45.9123C142.232 45.779 142.498 45.5957 142.725 45.3623C142.958 45.129 143.135 44.8523 143.255 44.5323C143.381 44.2123 143.444 43.8657 143.444 43.4923C143.444 43.119 143.381 42.7757 143.255 42.4623C143.135 42.1423 142.958 41.8657 142.725 41.6323C142.498 41.3923 142.232 41.209 141.925 41.0823C141.619 40.9557 141.282 40.8923 140.916 40.8923C140.556 40.8923 140.223 40.9557 139.917 41.0823C139.61 41.209 139.34 41.3923 139.107 41.6323C138.881 41.8657 138.704 42.1423 138.578 42.4623C138.451 42.7757 138.388 43.119 138.388 43.4923C138.388 43.8657 138.451 44.2123 138.578 44.5323C138.704 44.8523 138.881 45.129 139.107 45.3623C139.34 45.5957 139.61 45.779 139.917 45.9123C140.223 46.039 140.556 46.1023 140.916 46.1023Z" fill="white"/>
<path d="M150.889 47.3423C150.343 47.3423 149.833 47.2457 149.36 47.0523C148.887 46.859 148.474 46.589 148.121 46.2423C147.768 45.8957 147.491 45.489 147.291 45.0223C147.098 44.549 147.001 44.039 147.001 43.4923C147.001 42.939 147.098 42.429 147.291 41.9623C147.484 41.4957 147.758 41.089 148.111 40.7423C148.464 40.3957 148.877 40.129 149.35 39.9423C149.823 39.749 150.336 39.6523 150.889 39.6523C151.442 39.6523 151.955 39.749 152.428 39.9423C152.901 40.1357 153.314 40.4057 153.667 40.7523C154.02 41.0923 154.293 41.4957 154.487 41.9623C154.686 42.429 154.786 42.939 154.786 43.4923C154.786 44.039 154.686 44.549 154.487 45.0223C154.287 45.489 154.01 45.8957 153.657 46.2423C153.304 46.589 152.891 46.859 152.418 47.0523C151.952 47.2457 151.442 47.3423 150.889 47.3423ZM150.889 46.1023C151.255 46.1023 151.592 46.039 151.898 45.9123C152.205 45.779 152.471 45.5957 152.698 45.3623C152.931 45.129 153.107 44.8523 153.227 44.5323C153.354 44.2123 153.417 43.8657 153.417 43.4923C153.417 43.119 153.354 42.7757 153.227 42.4623C153.107 42.1423 152.931 41.8657 152.698 41.6323C152.471 41.3923 152.205 41.209 151.898 41.0823C151.592 40.9557 151.255 40.8923 150.889 40.8923C150.529 40.8923 150.196 40.9557 149.89 41.0823C149.583 41.209 149.313 41.3923 149.08 41.6323C148.854 41.8657 148.677 42.1423 148.55 42.4623C148.424 42.7757 148.361 43.119 148.361 43.4923C148.361 43.8657 148.424 44.2123 148.55 44.5323C148.677 44.8523 148.854 45.129 149.08 45.3623C149.313 45.5957 149.583 45.779 149.89 45.9123C150.196 46.039 150.529 46.1023 150.889 46.1023Z" fill="white"/>
<path d="M157.194 47.2223V39.7723H158.553V43.6523L158.183 43.5223L161.351 39.7723H163.06L160.092 43.2923L160.172 42.3323L163.15 47.2223H161.551L159.553 43.9423L158.553 45.1323V47.2223H157.194Z" fill="white"/>
<path d="M167.737 47.3423C167.264 47.3423 166.824 47.2557 166.418 47.0823C166.018 46.909 165.671 46.669 165.378 46.3623C165.092 46.049 164.882 45.6857 164.749 45.2723L165.878 44.7823C166.058 45.209 166.318 45.5457 166.657 45.7923C166.997 46.0323 167.38 46.1523 167.807 46.1523C168.046 46.1523 168.253 46.1157 168.426 46.0423C168.606 45.9623 168.743 45.8557 168.836 45.7223C168.936 45.589 168.986 45.429 168.986 45.2423C168.986 45.0223 168.919 44.8423 168.786 44.7023C168.659 44.5557 168.466 44.4423 168.206 44.3623L166.777 43.9023C166.198 43.7223 165.761 43.4523 165.468 43.0923C165.175 42.7323 165.028 42.309 165.028 41.8223C165.028 41.3957 165.132 41.019 165.338 40.6923C165.551 40.3657 165.845 40.1123 166.218 39.9323C166.597 39.7457 167.03 39.6523 167.517 39.6523C167.963 39.6523 168.373 39.7323 168.746 39.8923C169.119 40.0457 169.439 40.2623 169.705 40.5423C169.979 40.8157 170.182 41.139 170.315 41.5123L169.196 42.0123C169.049 41.639 168.829 41.3523 168.536 41.1523C168.243 40.9457 167.903 40.8423 167.517 40.8423C167.29 40.8423 167.09 40.8823 166.917 40.9623C166.744 41.0357 166.607 41.1423 166.507 41.2823C166.414 41.4157 166.368 41.5757 166.368 41.7623C166.368 41.969 166.434 42.1523 166.567 42.3123C166.701 42.4657 166.904 42.5857 167.177 42.6723L168.546 43.1023C169.139 43.2957 169.582 43.5623 169.875 43.9023C170.175 44.2423 170.325 44.6623 170.325 45.1623C170.325 45.589 170.215 45.9657 169.995 46.2923C169.775 46.619 169.472 46.8757 169.086 47.0623C168.699 47.249 168.25 47.3423 167.737 47.3423Z" fill="white"/>
</g>
<defs>
<linearGradient id="paint0_linear_261_824" x1="9.27851" y1="47.0499" x2="47.363" y2="20.832" gradientUnits="userSpaceOnUse">
<stop stop-color="#A6EE85"/>
<stop offset="0.48" stop-color="#8F85FF"/>
<stop offset="1" stop-color="#DC4375"/>
</linearGradient>
<linearGradient id="paint1_linear_261_824" x1="9.27851" y1="47.0499" x2="47.363" y2="20.832" gradientUnits="userSpaceOnUse">
<stop stop-color="#A6EE85"/>
<stop offset="0.48" stop-color="#8F85FF"/>
<stop offset="1" stop-color="#DC4375"/>
</linearGradient>
<linearGradient id="paint2_linear_261_824" x1="9.27851" y1="47.0499" x2="47.363" y2="20.832" gradientUnits="userSpaceOnUse">
<stop stop-color="#A6EE85"/>
<stop offset="0.48" stop-color="#8F85FF"/>
<stop offset="1" stop-color="#DC4375"/>
</linearGradient>
<linearGradient id="paint3_linear_261_824" x1="9.27851" y1="47.0499" x2="47.363" y2="20.832" gradientUnits="userSpaceOnUse">
<stop stop-color="#A6EE85"/>
<stop offset="0.48" stop-color="#8F85FF"/>
<stop offset="1" stop-color="#DC4375"/>
</linearGradient>
<linearGradient id="paint4_linear_261_824" x1="-7.11144" y1="46.2986" x2="60.3851" y2="-2.84136" gradientUnits="userSpaceOnUse">
<stop offset="0.130313" stop-color="#A6EE85"/>
<stop offset="0.48" stop-color="#8F85FF"/>
<stop offset="0.898167" stop-color="#DC4375"/>
</linearGradient>
<linearGradient id="paint5_linear_261_824" x1="-7.15019" y1="23.5377" x2="40.0854" y2="-8.98555" gradientUnits="userSpaceOnUse">
<stop offset="0.48" stop-color="#8F85FF"/>
</linearGradient>
<linearGradient id="paint6_linear_261_824" x1="17.3476" y1="59.1205" x2="64.5833" y2="26.597" gradientUnits="userSpaceOnUse">
<stop offset="0.48" stop-color="#8F85FF"/>
</linearGradient>
<linearGradient id="paint7_linear_261_824" x1="9.27851" y1="47.0499" x2="47.363" y2="20.832" gradientUnits="userSpaceOnUse">
<stop stop-color="#A6EE85"/>
<stop offset="0.48" stop-color="#8F85FF"/>
<stop offset="1" stop-color="#DC4375"/>
</linearGradient>
<clipPath id="clip0_261_824">
<rect width="171" height="50" fill="white"/>
</clipPath>
</defs>
</svg>
