<svg width="507" height="377" viewBox="0 0 507 377" fill="none" xmlns="http://www.w3.org/2000/svg">
<g opacity="0.05">
<path d="M146.841 376.598C116.301 376.48 90.0231 368.963 68.006 354.048C46.1074 339.134 29.2395 317.531 17.4023 289.24C5.68359 260.949 -0.116596 226.918 0.00177556 187.145C0.00177556 147.491 5.86115 113.696 17.5799 85.7599C29.417 57.8243 46.2849 36.5767 68.1836 22.0171C90.2006 7.33902 116.42 0 146.841 0C177.263 0 203.423 7.33902 225.321 22.0171C247.338 36.6951 264.266 58.0019 276.103 85.9375C287.94 113.755 293.799 147.491 293.681 187.145C293.681 227.036 287.762 261.127 275.925 289.418C264.206 317.708 247.398 339.311 225.499 354.226C203.6 369.141 177.381 376.598 146.841 376.598ZM146.841 312.855C167.675 312.855 184.306 302.379 196.735 281.428C209.164 260.476 215.319 229.048 215.201 187.145C215.201 159.564 212.36 136.6 206.678 118.253C201.114 99.9053 193.184 86.1151 182.885 76.8821C172.705 67.6492 160.691 63.0327 146.841 63.0327C126.126 63.0327 109.554 73.3902 97.1254 94.1051C84.6964 114.82 78.4227 145.833 78.3043 187.145C78.3043 215.081 81.0861 238.4 86.6495 257.102C92.3313 275.687 100.321 289.654 110.62 299.006C120.918 308.239 132.992 312.855 146.841 312.855Z" fill="black"/>
<path d="M506.615 4.97159V368.608H429.732V77.9474H427.602L344.328 130.149V61.9673L434.349 4.97159H506.615Z" fill="black"/>
</g>
</svg>
