<svg width="624" height="377" viewBox="0 0 624 377" fill="none" xmlns="http://www.w3.org/2000/svg">
<path opacity="0.05" d="M147.184 376.99C116.644 376.872 90.3653 369.355 68.3483 354.44C46.4496 339.526 29.5817 317.923 17.7446 289.632C6.02584 261.341 0.225648 227.31 0.344019 187.537C0.344019 147.883 6.20339 114.088 17.9221 86.152C29.7593 58.2164 46.6272 36.9687 68.5258 22.4091C90.5429 7.73105 116.762 0.392032 147.184 0.392032C177.605 0.392032 203.765 7.73105 225.664 22.4091C247.681 37.0871 264.608 58.3939 276.445 86.3295C288.282 114.147 294.141 147.883 294.023 187.537C294.023 227.428 288.104 261.519 276.267 289.81C264.549 318.1 247.74 339.703 225.841 354.618C203.943 369.533 177.723 376.99 147.184 376.99ZM147.184 313.247C168.017 313.247 184.648 302.771 197.077 281.82C209.506 260.868 215.661 229.44 215.543 187.537C215.543 159.956 212.702 136.992 207.02 118.645C201.457 100.297 193.526 86.5071 183.228 77.2741C173.048 68.0412 161.033 63.4247 147.184 63.4247C126.469 63.4247 109.897 73.7822 97.4676 94.4972C85.0386 115.212 78.765 146.225 78.6466 187.537C78.6466 215.473 81.4283 238.792 86.9917 257.494C92.6736 276.079 100.664 290.046 110.962 299.398C121.26 308.631 133.334 313.247 147.184 313.247ZM483.164 373.972C456.649 373.972 433.034 369.414 412.319 360.3C391.722 351.067 375.446 338.401 363.491 322.303C351.654 306.086 345.558 287.383 345.203 266.195H422.617C423.091 275.072 425.991 282.885 431.318 289.632C436.763 296.261 443.983 301.41 452.98 305.08C461.976 308.749 472.096 310.584 483.342 310.584C495.06 310.584 505.418 308.512 514.414 304.369C523.41 300.226 530.453 294.485 535.543 287.146C540.633 279.807 543.178 271.344 543.178 261.756C543.178 252.049 540.456 243.467 535.011 236.01C529.684 228.434 521.99 222.516 511.928 218.254C501.985 213.993 490.148 211.862 476.417 211.862H442.504V155.399H476.417C488.017 155.399 498.257 153.387 507.134 149.362C516.131 145.338 523.114 139.774 528.086 132.672C533.058 125.451 535.543 117.047 535.543 107.459C535.543 98.3442 533.354 90.3542 528.974 83.4886C524.712 76.5047 518.676 71.0597 510.863 67.1534C503.169 63.2472 494.173 61.294 483.874 61.294C473.458 61.294 463.929 63.188 455.288 66.9758C446.647 70.6453 439.722 75.9129 434.514 82.7784C429.305 89.6439 426.524 97.6932 426.168 106.926H352.482C352.837 85.9744 358.815 67.5085 370.416 51.5284C382.016 35.5483 397.641 23.0601 417.291 14.0639C437.059 4.94932 459.372 0.392032 484.23 0.392032C509.324 0.392032 531.282 4.94932 550.103 14.0639C568.924 23.1785 583.543 35.4891 593.96 50.9957C604.495 66.384 609.703 83.6662 609.585 102.842C609.703 123.202 603.37 140.188 590.586 153.801C577.92 167.414 561.408 176.055 541.048 179.724V182.565C567.8 185.998 588.159 195.29 602.127 210.442C616.213 225.475 623.197 244.296 623.079 266.905C623.197 287.62 617.22 306.027 605.146 322.125C593.19 338.223 576.677 350.889 555.607 360.122C534.537 369.355 510.39 373.972 483.164 373.972Z" fill="black"/>
</svg>
