<svg width="609" height="377" viewBox="0 0 609 377" fill="none" xmlns="http://www.w3.org/2000/svg">
<path opacity="0.05" d="M147.508 376.99C116.968 376.872 90.6896 369.355 68.6725 354.44C46.7738 339.526 29.9059 317.923 18.0688 289.632C6.35006 261.341 0.549867 227.31 0.668238 187.537C0.668238 147.883 6.52761 114.088 18.2464 86.152C30.0835 58.2164 46.9514 36.9687 68.8501 22.4091C90.8671 7.73105 117.086 0.392032 147.508 0.392032C177.929 0.392032 204.089 7.73105 225.988 22.4091C248.005 37.0871 264.932 58.3939 276.769 86.3295C288.606 114.147 294.466 147.883 294.347 187.537C294.347 227.428 288.429 261.519 276.592 289.81C264.873 318.1 248.064 339.703 226.165 354.618C204.267 369.533 178.048 376.99 147.508 376.99ZM147.508 313.247C168.341 313.247 184.972 302.771 197.401 281.82C209.83 260.868 215.985 229.44 215.867 187.537C215.867 159.956 213.026 136.992 207.344 118.645C201.781 100.297 193.85 86.5071 183.552 77.2741C173.372 68.0412 161.357 63.4247 147.508 63.4247C126.793 63.4247 110.221 73.7822 97.7918 94.4972C85.3628 115.212 79.0892 146.225 78.9708 187.537C78.9708 215.473 81.7525 238.792 87.316 257.494C92.9978 276.079 100.988 290.046 111.286 299.398C121.584 308.631 133.658 313.247 147.508 313.247ZM349.078 369V313.602L478.517 193.751C489.525 183.098 498.758 173.51 506.216 164.987C513.791 156.464 519.532 148.119 523.439 139.952C527.345 131.666 529.298 122.729 529.298 113.141C529.298 102.487 526.871 93.3134 522.018 85.6193C517.165 77.8068 510.536 71.8291 502.132 67.6861C493.728 63.4247 484.199 61.294 473.545 61.294C462.418 61.294 452.712 63.5431 444.426 68.0412C436.14 72.5393 429.748 78.9905 425.25 87.3949C420.752 95.7992 418.503 105.802 418.503 117.402H345.527C345.527 93.6094 350.913 72.9536 361.684 55.4347C372.456 37.9157 387.549 24.3622 406.961 14.7741C426.374 5.18606 448.746 0.392032 474.078 0.392032C500.12 0.392032 522.788 5.00851 542.082 14.2415C561.495 23.3561 576.587 36.0218 587.359 52.2386C598.131 68.4555 603.517 87.0398 603.517 107.991C603.517 121.723 600.794 135.276 595.349 148.652C590.022 162.028 580.494 176.884 566.763 193.219C553.031 209.436 533.678 228.908 508.701 251.635L455.612 303.659V306.145H608.311V369H349.078Z" fill="black"/>
</svg>
